<?xml version='1.0' encoding='utf-8'?>
<svg xmlns="http://www.w3.org/2000/svg" width="512" height="512" fill="none"><defs><clipPath id="clip-rounded"><rect x="0" y="0" width="512" height="512" rx="128" ry="128" /></clipPath></defs><g clip-path="url(#clip-rounded)"><path fill="#eeeeee" d="M0 0h512v512H0z" /><path fill="#333333" d="M131 189v78c0 12-10 22-22 22v34c30 0 55-25 55-56v-78zm50 0v45a39 39 0 0 0 61 32 39 39 0 0 0 22 7l5-1a22 22 0 0 1-21 17v34c30 0 55-25 55-56v-78h-33v45a6 6 0 0 1-11 0v-45h-34v45a6 6 0 0 1-11 0v-45zm139 0v78h33v-78zm50 0v78c0 12-10 22-22 22v34c31 0 56-25 56-56v-78zM181 289v34h50v-34z" /></g></svg>