<?xml version='1.0' encoding='utf-8'?>
<svg xmlns="http://www.w3.org/2000/svg" width="512" height="512" fill="none"><defs><clipPath id="clip-rounded"><rect x="0" y="0" width="512" height="512" rx="128" ry="128" /></clipPath></defs><g clip-path="url(#clip-rounded)"><path fill="#eeeeee" d="M0 0h512v512H0z" /><path fill="#d80027" d="M171 0h170v512H171z" /><path fill="#0052b4" d="M512 171v170H0V171z" /><path fill="#eeeeee" d="m256 181 8.3 25.5H291l-21.7 15.8 8.3 25.5L256 232l-21.7 15.8 8.3-25.5-21.7-15.8h26.8zm47 76.2 8.2 25.5H338l-21.7 15.7 8.3 25.6-21.7-15.8-21.7 15.8 8.3-25.6-21.7-15.7h26.8zm-94 0 8.4 25.5h26.8l-21.7 15.7 8.3 25.6-21.7-15.8-21.7 15.8 8.3-25.6-21.7-15.7h26.8zM135.3 219l8.3 25.6h26.8l-21.7 15.8 8.3 25.5-21.7-15.8-21.7 15.8 8.3-25.5-21.7-15.8H127zm241.4 0 8.3 25.6h26.8l-21.7 15.8 8.3 25.5-21.7-15.8-21.7 15.8 8.3-25.5-21.7-15.8h26.8z" /></g></svg>