<?xml version='1.0' encoding='utf-8'?>
<svg xmlns="http://www.w3.org/2000/svg" width="512" height="512" fill="none"><defs><clipPath id="clip-rounded"><rect x="0" y="0" width="512" height="512" rx="128" ry="128" /></clipPath></defs><g clip-path="url(#clip-rounded)"><path fill="#eeeeee" d="M512 384H0V128h512z" /><path fill="#338af3" d="M512 512H0V368h512zm0-368H0V0h512z" /><path fill="#ffc635" d="m332.5 256-31.2 14.7 16.6 30.3-34-6.5-4.3 34.3-23.6-25.2-23.6 25.2-4.3-34.3-34 6.5 16.6-30.3-31.2-14.7 31.3-14.7L194 211l34 6.5 4.3-34.3 23.6 25.2 23.6-25.2 4.3 34.3 34-6.5-16.6 30.3z" /></g></svg>