<?xml version='1.0' encoding='utf-8'?>
<svg xmlns="http://www.w3.org/2000/svg" width="512" height="512" fill="none"><defs><clipPath id="clip-rounded"><rect x="0" y="0" width="512" height="512" rx="128" ry="128" /></clipPath></defs><g clip-path="url(#clip-rounded)"><path fill="#d80027" d="M0 136h512v240H0z" /><path fill="#6da544" d="M0 344h512v168H0z" /><path fill="#338af3" d="M0 0h512v168H0z" /><path fill="#eeeeee" d="M261 321a65 65 0 1 1 31-122.2 80 80 0 1 0 0 114.4q-14 7.6-31 7.8" /><path fill="#eeeeee" d="m311 211 8.6 24.2 23.2-11-11 23.2L356 256l-24.2 8.6 11 23.2-23.2-11L311 301l-8.6-24.2-23.2 11 11-23.2L266 256l24.2-8.6-11-23.2 23.2 11z" /></g></svg>