<?xml version='1.0' encoding='utf-8'?>
<svg xmlns="http://www.w3.org/2000/svg" width="512" height="512" fill="none"><defs><clipPath id="clip-rounded"><rect x="0" y="0" width="512" height="512" rx="128" ry="128" /></clipPath></defs><g clip-path="url(#clip-rounded)"><path fill="#0052b4" d="M0 0h512v512H0z" /><path fill="#ffda44" d="m0 0 512 512V0z" /><path fill="#eeeeee" d="M394.8 481.2h34.8l-28.2 20.5 3.4 10.3h-41.6l3.4-10.3-28.2-20.5h34.8L384 448zm-64-64h34.8l-28.2 20.5 10.8 33.1-28.2-20.5-28.2 20.5 10.8-33.1-28.2-20.5h34.8L320 384zm-64-64h34.8l-28.2 20.5 10.8 33.1-28.2-20.5-28.2 20.5 10.8-33.1-28.2-20.5h34.8L256 320zm-64-64h34.8l-28.2 20.5 10.8 33.1-28.2-20.5-28.2 20.5 10.8-33.1-28.2-20.5h34.8L192 256zm-64-64h34.8l-28.2 20.5 10.8 33.1-28.2-20.5-28.2 20.5 10.8-33.1-28.3-20.5h35L128 192zm-64-64h34.9l-28.3 20.5 10.8 33.1L64 194.3l-28.2 20.5 10.8-33.1-28.3-20.5h35L64 128zm-64-64h34.9l-28.3 20.5 10.8 33.1L0 130.3V64z" /></g></svg>