<?xml version='1.0' encoding='utf-8'?>
<svg xmlns="http://www.w3.org/2000/svg" width="512" height="512" fill="none"><defs><clipPath id="clip-rounded"><rect x="0" y="0" width="512" height="512" rx="128" ry="128" /></clipPath></defs><g clip-path="url(#clip-rounded)"><path fill="#0052b4" d="M0 0h512v512H0z" /><path fill="#eeeeee" d="M512 288v-64H288V0h-64v224H0v64h224v224h64V288z" /><path fill="#eeeeee" d="M128 384h32v32h-32v32H96v-32H64v-32h32v-32h32zm288 0h32v32h-32v32h-32v-32h-32v-32h32v-32h32zM128 64v32h32v32h-32v32H96v-32H64V96h32V64zm288 32h32v32h-32v32h-32v-32h-32V96h32V64h32z" /></g></svg>