<?xml version='1.0' encoding='utf-8'?>
<svg xmlns="http://www.w3.org/2000/svg" width="512" height="512" fill="none"><defs><clipPath id="clip-rounded"><rect x="0" y="0" width="512" height="512" rx="128" ry="128" /></clipPath></defs><g clip-path="url(#clip-rounded)"><path fill="#ffda44" d="m0 384 256-64 256 64v128H0z" /><path fill="#6da544" d="m0 256 256-64 256 64v128H0z" /><path fill="#eeeeee" d="m0 128 256-64 256 64v128H0z" /><path fill="#0052b4" d="M0 0h512v128H0z" /><path fill="#d80027" d="M320 0v512H192V0z" /><path fill="#ffda44" d="m96 27 8.3 25.6H131l-21.7 15.8 8.3 25.5L96 78 74.3 93.9l8.3-25.5-21.7-15.8h26.8z" /></g></svg>