<?xml version='1.0' encoding='utf-8'?>
<svg xmlns="http://www.w3.org/2000/svg" width="512" height="512" fill="none"><defs><clipPath id="clip-rounded"><rect x="0" y="0" width="512" height="512" rx="128" ry="128" /></clipPath></defs><g clip-path="url(#clip-rounded)"><path fill="#496e2d" d="M307.1 0v512H.1V0z" /><path fill="#eeeeee" d="M512 0v512H256V0z" /><path fill="#d80027" d="m311 206.9-21 29-34-11 21 28.8-21 29 34-11.1 21 29v-35.8l34-11.1-34-11z" /><path fill="#d80027" d="M277.2 328.3a72.3 72.3 0 1 1 34.5-136 89 89 0 1 0 0 127.3 72 72 0 0 1-34.5 8.7" /></g></svg>