<?xml version='1.0' encoding='utf-8'?>
<svg xmlns="http://www.w3.org/2000/svg" width="512" height="512" fill="none"><defs><clipPath id="clip-rounded"><rect x="0" y="0" width="512" height="512" rx="128" ry="128" /></clipPath></defs><g clip-path="url(#clip-rounded)"><path fill="#eeeeee" d="M512 384H0V128h512z" /><path fill="#496e2d" d="M512 512H0V368h512z" /><path fill="#333333" d="M512 144H0V0h512z" /><path fill="#d80027" d="M0 0v512l256-256zm333.5 185.5A78 78 0 0 1 384 180a78 78 0 0 0 0 152.2 78 78 0 0 1-50.5-146.7" /><path fill="#d80027" d="m398.3 240.1-11-34-11.1 34h-35.8l29 21-11.1 34 28.9-21 29 21-11.1-34 29-21z" /></g></svg>