<?xml version='1.0' encoding='utf-8'?>
<svg xmlns="http://www.w3.org/2000/svg" width="512" height="512" fill="none"><defs><clipPath id="clip-rounded"><rect x="0" y="0" width="512" height="512" rx="128" ry="128" /></clipPath></defs><g clip-path="url(#clip-rounded)"><path fill="#ffda44" d="M0 0h512v512H0z" /><path fill="#d80027" d="M0 57h512v57H0zm0 114h512v57H0zm0 114h512v56H0zm0 113h512v57H0z" /><path fill="#ff9811" d="M96 128v160l96 96c53 0 96-43 96-96l-48-48 48-48v-64h-28v32h-27v-32h-27v32h-28v-32h-27v32h-28v-32z" /><path fill="#0052b4" d="M192 192h96v96h-96z" /><path fill="#eeeeee" d="M192 288v96a96 96 0 0 1-96-96z" /></g></svg>