<?xml version='1.0' encoding='utf-8'?>
<svg xmlns="http://www.w3.org/2000/svg" width="512" height="512" fill="none"><defs><clipPath id="clip-rounded"><rect x="0" y="0" width="512" height="512" rx="128" ry="128" /></clipPath></defs><g clip-path="url(#clip-rounded)"><path fill="#eeeeee" d="M512 384H0V128h512z" /><path fill="#496e2d" d="M512 512H0V368h512z" /><path fill="#0052b4" d="M512 144H0V0h512z" /><path fill="#d80027" d="M0 0v512l256-256z" /><path fill="#85693d" d="m345 229-12 11 40 40-40 40 11 11 40-40 40 40 11-11-40-40 40-40-11-11-40 40z" /><path fill="#d80027" d="m384 181 21 62-54-38h66l-53 39z" /></g></svg>