<?xml version='1.0' encoding='utf-8'?>
<svg xmlns="http://www.w3.org/2000/svg" width="512" height="512" fill="none"><defs><clipPath id="clip-rounded"><rect x="0" y="0" width="512" height="512" rx="128" ry="128" /></clipPath></defs><g clip-path="url(#clip-rounded)"><path fill="#d80027" d="M0 136h512v240H0z" /><path fill="#6da544" d="M0 344h512v168H0zM0 0h512v168H0z" /><path fill="#ffda44" d="m85 198.1 14.4 44.2H146l-37.6 27.4 14.4 44.2L85 286.6l-37.7 27.3 14.4-44.2-37.6-27.4h46.5zm171 0 14.4 44.2h46.5l-37.7 27.4 14.4 44.2-37.6-27.3-37.6 27.3 14.4-44.2-37.7-27.4h46.5zm171 0 14.3 44.2h46.5l-37.6 27.4 14.4 44.2-37.7-27.3-37.6 27.3 14.4-44.2-37.6-27.4h46.5z" /></g></svg>