<?xml version='1.0' encoding='utf-8'?>
<svg xmlns="http://www.w3.org/2000/svg" width="512" height="512" fill="none"><defs><clipPath id="clip-rounded"><rect x="0" y="0" width="512" height="512" rx="128" ry="128" /></clipPath></defs><g clip-path="url(#clip-rounded)"><path fill="#eeeeee" d="M512 384H0V128h512z" /><path fill="#338af3" d="M512 512H0V368h512zm0-368H0V0h512zM159.3 274.5l8.3 25.5h26.9l-21.7 15.7 8.2 25.5-21.7-15.7-21.7 15.7 8.3-25.5-21.7-15.7h26.9zm0-110.8 8.3 25.5h26.9L172.8 205l8.2 25.5-21.7-15.8-21.7 15.8L146 205l-21.7-15.8h26.9zm193.4 110.8 8.2 25.5h26.9L366 315.7l8.2 25.5-21.6-15.7-21.7 15.7 8.2-25.5-21.7-15.7h26.9zm0-110.8 8.2 25.5h26.9L366 205l8.2 25.5-21.6-15.8-21.7 15.8 8.2-25.5-21.7-15.8h26.9zM256 219l8.3 25.6H291l-21.7 15.8 8.3 25.5L256 270l-21.7 15.8 8.3-25.5-21.7-15.8h26.8z" /></g></svg>