<?xml version='1.0' encoding='utf-8'?>
<svg xmlns="http://www.w3.org/2000/svg" width="512" height="512" fill="none"><defs><clipPath id="clip-rounded"><rect x="0" y="0" width="512" height="512" rx="128" ry="128" /></clipPath></defs><g clip-path="url(#clip-rounded)"><path fill="#a2001d" d="M0 204.9h512V512H0z" /><path fill="#0052b4" d="M0 0h512v256H0z" /><path fill="#eeeeee" d="m352 328-96-12-96 12V184h192z" /><path fill="#0052b4" d="M256 316a48 48 0 1 0 0-96 48 48 0 0 0 0 96" /><path fill="#a2001d" d="M256 292a24 24 0 1 0 0-48 24 24 0 0 0 0 48" /><path fill="#eeeeee" d="M222 234a48 48 0 0 1 68 0l-34 34z" /><path fill="#496e2d" d="M220 208h72l-36 36z" /><path fill="#ffc635" d="M244 232h24v72h-24z" /><path fill="#496e2d" d="M295 296h-78l-57 32h192z" /></g></svg>