<?xml version='1.0' encoding='utf-8'?>
<svg xmlns="http://www.w3.org/2000/svg" width="512" height="512" fill="none"><defs><clipPath id="clip-rounded"><rect x="0" y="0" width="512" height="512" rx="128" ry="128" /></clipPath></defs><g clip-path="url(#clip-rounded)"><path fill="#d80027" d="M0 0h512v73L256 96 0 73z" /><path fill="#eeeeee" d="M0 73h512v73l-256 23L0 146z" /><path fill="#333333" d="M0 146h512v73l-256 23L0 219z" /><path fill="#ffda44" d="M0 219h512v74l-256 22L0 293z" /><path fill="#4a1f63" d="M0 293h512v73l-256 23L0 366z" /><path fill="#338af3" d="M0 366h512v73l-256 23L0 439z" /><path fill="#6da544" d="M0 439h512v73H0z" /></g></svg>