<?xml version='1.0' encoding='utf-8'?>
<svg xmlns="http://www.w3.org/2000/svg" width="512" height="512" fill="none"><defs><clipPath id="clip-rounded"><rect x="0" y="0" width="512" height="512" rx="128" ry="128" /></clipPath></defs><g clip-path="url(#clip-rounded)"><path fill="#6da544" d="M0 0h512v512H0z" /><path fill="#eeeeee" d="M253.9 161.3a62.7 62.7 0 1 1 71.5 30.3 33.7 33.7 0 1 0 25.3 62.3 62.7 62.7 0 1 1-30.3 71.5 33.7 33.7 0 1 0-62.3 25.3 62.7 62.7 0 1 1-71.5-30.3 33.7 33.7 0 1 0-25.3-62.3 62.7 62.7 0 1 1 30.3-71.5 33.7 33.7 0 1 0 62.3-25.3" /></g></svg>