<?xml version='1.0' encoding='utf-8'?>
<svg xmlns="http://www.w3.org/2000/svg" width="512" height="512" fill="none"><defs><clipPath id="clip-rounded"><rect x="0" y="0" width="512" height="512" rx="128" ry="128" /></clipPath></defs><g clip-path="url(#clip-rounded)"><path fill="#eeeeee" d="M0 0h512v512H0z" /><path fill="#d80027" d="M464 512h48v-48L304 256 512 48V0h-48L256 208 48 0H0v48l208 208L0 464v48h48l208-208z" /><path fill="#ffc635" d="M211.5 78 256 89l44.5-11V40l-17.8 9L256 22.3 229.3 49l-17.8-9z" /><path fill="#d80027" d="M211.5 78v27.7c0 34.1 44.5 44.6 44.5 44.6s44.5-10.5 44.5-44.6V78z" /></g></svg>