<?xml version='1.0' encoding='utf-8'?>
<svg xmlns="http://www.w3.org/2000/svg" width="512" height="512" fill="none"><defs><clipPath id="clip-rounded"><rect x="0" y="0" width="512" height="512" rx="128" ry="128" /></clipPath></defs><g clip-path="url(#clip-rounded)"><path fill="#0052b4" d="m0 384 256-64 256 64v128H0z" /><path fill="#d80027" d="m0 256 256-64 256 64v128H0z" /><path fill="#eeeeee" d="m0 128 256-64 256 64v128H0z" /><path fill="#ffc635" d="M0 0h512v128H0z" /><path fill="#6da544" d="M0 0v512l256-256z" /><path fill="#eeeeee" d="M67.5 255.3a78 78 0 0 1 61.2-76.1q-8-1.8-16.7-1.9a78 78 0 1 0 16.7 154 78 78 0 0 1-61.2-76" /><path fill="#eeeeee" d="m127.9 188.5 4.1 12.7h13.4l-10.8 8 4.1 12.7-10.8-8-10.9 8 4.2-12.8-10.9-7.9h13.4zm0 33.4 4.1 12.7h13.4l-10.8 7.9 4.1 12.8-10.8-8-10.9 8 4.2-12.8-10.9-7.9h13.4zm0 33.4L132 268h13.4l-10.8 7.9 4.1 12.8-10.8-8-10.9 8 4.2-12.8-10.9-7.9h13.4z" /><path fill="#eeeeee" d="m127.9 288.6 4.1 12.8h13.4l-10.8 7.9 4.1 12.7-10.8-7.8L117 322l4.2-12.7-10.9-7.9h13.4z" /></g></svg>