<?xml version='1.0' encoding='utf-8'?>
<svg xmlns="http://www.w3.org/2000/svg" width="512" height="512" fill="none"><defs><clipPath id="clip-rounded"><rect x="0" y="0" width="512" height="512" rx="128" ry="128" /></clipPath></defs><g clip-path="url(#clip-rounded)"><path fill="#eeeeee" d="M0 0h512v512H0z" /><path fill="#d80027" d="M512 0H0v46.6h512zm0 93H0v46.6h512zM0 186.2h512v46.5H0zm512 93H0v46.6h512zM0 372.3h512V419H0zm512 93.1H0V512h512z" /><path fill="#0052b4" d="M0 0h256v232.7H0z" /><path fill="#eeeeee" d="m128 42.4 16.6 51.1h53.7l-43.4 31.6 16.5 51-43.4-31.5-43.4 31.6L101 125 57.7 93.5h53.7z" /></g></svg>