<?xml version='1.0' encoding='utf-8'?>
<svg xmlns="http://www.w3.org/2000/svg" width="512" height="512" fill="none"><defs><clipPath id="clip-rounded"><rect x="0" y="0" width="512" height="512" rx="128" ry="128" /></clipPath></defs><g clip-path="url(#clip-rounded)"><path fill="#eeeeee" d="m315.6 209.2 21 29 34-11.1-21 29 21 28.9-34-11.1-21 29V267l-34-11.1 34-11z" /><path fill="#eeeeee" d="M258.3 328.3a72.3 72.3 0 1 1 34.4-136 89 89 0 1 0 0 127.3 72 72 0 0 1-34.4 8.7" /><path fill="#333333" d="M512 384H0V128h512z" /><path fill="#496e2d" d="M512 512H0V368h512z" /><path fill="#d80027" d="M512 144H0V0h512z" /><path fill="#eeeeee" d="m315.6 209.2 21 29 34-11.1-21 29 21 28.9-34-11.1-21 29V267l-34-11.1 34-11z" /><path fill="#eeeeee" d="M258.3 328.3a72.3 72.3 0 1 1 34.4-136 89 89 0 1 0 0 127.3 72 72 0 0 1-34.4 8.7" /></g></svg>