<?xml version='1.0' encoding='utf-8'?>
<svg xmlns="http://www.w3.org/2000/svg" width="512" height="512" fill="none"><defs><clipPath id="clip-rounded"><rect x="0" y="0" width="512" height="512" rx="128" ry="128" /></clipPath></defs><g clip-path="url(#clip-rounded)"><path fill="#002266" d="M0 0h512v512H0z" /><path fill="#ffda44" d="M0 224h512v64H0z" /><path fill="#eeeeee" d="m144 288 10.4 41.4 29.6-30.7-11.7 41 41-11.7-30.7 29.6L224 368l-41.4 10.4 30.7 29.6-41-11.7 11.7 41-29.6-30.7L144 448l-10.4-41.4-29.6 30.7 11.7-41-41 11.7 30.7-29.6L64 368l41.4-10.4L74.7 328l41 11.7-11.7-41 29.6 30.7z" /></g></svg>