<?xml version='1.0' encoding='utf-8'?>
<svg xmlns="http://www.w3.org/2000/svg" width="512" height="512" fill="none"><defs><clipPath id="clip-rounded"><rect x="0" y="0" width="512" height="512" rx="128" ry="128" /></clipPath></defs><g clip-path="url(#clip-rounded)"><path fill="#eeeeee" d="M512 384H0V128h512z" /><path fill="#d80027" d="M512 512H0V368h512zm0-368H0V0h512z" /><path fill="#ffc635" d="M345 256c0 49.2-39.8 78-89 78s-89-28.8-89-78a89 89 0 1 1 178 0" /><path fill="#0052b4" d="M345 256a89 89 0 1 1-178 0" /><path fill="#d80027" d="M222.6 278.3h-22.3v-44.6h22.3zm89 0h-22.2v-44.6h22.3zm-44.5 0H245v-78h22z" /></g></svg>