<?xml version='1.0' encoding='utf-8'?>
<svg xmlns="http://www.w3.org/2000/svg" width="512" height="512" fill="none"><defs><clipPath id="clip-rounded"><rect x="0" y="0" width="512" height="512" rx="128" ry="128" /></clipPath></defs><g clip-path="url(#clip-rounded)"><path fill="#ffda44" d="M384 0v512H128V0z" /><path fill="#0052b4" d="M512 0v512H368V0zM144 0v512H0V0z" /><path fill="#d80027" d="m328.4 278.3 16.7 22.2v-89l-16.7 22.2h-50v-50l22.2-16.7h-89l22.2 16.7v50h-50l-16.7-22.2v89l16.7-22.2h50v50L211.6 345h89l-22.2-16.7v-50z" /><path fill="#eeeeee" d="M323 244.9h-56v-55.7h-22V245h-55.7v22H245v55.7h22V267h55.7z" /></g></svg>