<?xml version='1.0' encoding='utf-8'?>
<svg xmlns="http://www.w3.org/2000/svg" width="512" height="512" fill="none"><defs><clipPath id="clip-rounded"><rect x="0" y="0" width="512" height="512" rx="128" ry="128" /></clipPath></defs><g clip-path="url(#clip-rounded)"><path fill="#eeeeee" d="M512 384H0V128h512z" /><path fill="#0052b4" d="M512 512H0V368h512z" /><path fill="#d80027" d="M512 144H0V0h512z" /><path fill="#6da544" d="M319.5 180.6A89 89 0 1 1 193 180l25.2 25.2a53.4 53.4 0 1 0 75.6 0L319 180z" /><path fill="#ffc635" d="m256 206 8.3 25.6H291l-21.7 15.7 8.3 25.5-21.7-15.7-21.7 15.7 8.3-25.5-21.7-15.7h26.8z" /></g></svg>