<?xml version='1.0' encoding='utf-8'?>
<svg xmlns="http://www.w3.org/2000/svg" width="512" height="512" fill="none"><defs><clipPath id="clip-rounded"><rect x="0" y="0" width="512" height="512" rx="128" ry="128" /></clipPath></defs><g clip-path="url(#clip-rounded)"><path fill="#4a1f63" d="M0 416h512v96H0z" /><path fill="#0052b4" d="M0 343h512v96H0z" /><path fill="#338af3" d="M0 270h512v96H0z" /><path fill="#496e2d" d="M0 219h512v74H0z" /><path fill="#ffda44" d="M0 123h512v96H0z" /><path fill="#ff9811" d="M0 50h512v96H0z" /><path fill="#d80027" d="M0 0h512v73H0z" /><circle cx="256" cy="256" r="112" fill="var(--flag-palette-brown, #85693d)" /><path fill="#ffc635" d="M256 152a104 104 0 1 1 0 208 104 104 0 0 1 0-208m0 40a64 64 0 1 0 0 128 64 64 0 0 0 0-128m0 8a56 56 0 1 1 0 112 56 56 0 0 1 0-112" /><path fill="#85693d" fill-rule="evenodd" d="M212 232a16 16 0 1 1 32 0 16 16 0 0 1-32 0m16-8a8 8 0 1 0 0 16 8 8 0 0 0 0-16m40 8a16 16 0 1 1 32 0 16 16 0 0 1-32 0m16-8a8 8 0 1 0 0 16 8 8 0 0 0 0-16m-60 40h64a16 16 0 1 1 0 32h-64a16 16 0 1 1 0-32m0 8h2v6h12v-6h4v6h12v-6zm-7.7 6a8 8 0 0 1 5.7-5.7v5.7zm5.7 9.7a8 8 0 0 1-5.7-5.7h5.7zm16 .3h-12v-6h12zm16 0h-12v-6h12zm16 0h-12v-6h12zm16 0h-12v-6h12zm9.7-6a8 8 0 0 1-5.7 5.7V282zm-5.7-9.7c2.8.7 5 2.9 5.7 5.7H290zm-19.7-.3H286v6h-12v-6zm-16.3 0h16v6h-12v-6z" clip-rule="evenodd" /></g></svg>