<?xml version='1.0' encoding='utf-8'?>
<svg xmlns="http://www.w3.org/2000/svg" width="512" height="512" fill="none"><defs><clipPath id="clip-rounded"><rect x="0" y="0" width="512" height="512" rx="128" ry="128" /></clipPath></defs><g clip-path="url(#clip-rounded)"><path fill="#ffda44" d="M512 384H0V128h512z" /><path fill="#6da544" d="M512 512H0V368h512zm0-368H0V0h512z" /><path fill="#d80027" d="M0 0v512l256-256z" /><path fill="#333333" d="m326.4 208 10.8 33.2H372l-28.3 20.5 10.8 33.1-28.2-20.5-28.2 20.5 10.8-33.1-28.3-20.5h35zm115.2 0 10.8 33.2h34.9L459 261.7l10.8 33.1-28.2-20.5-28.2 20.5 10.8-33.1-28.3-20.5h35z" /></g></svg>