<?xml version='1.0' encoding='utf-8'?>
<svg xmlns="http://www.w3.org/2000/svg" width="512" height="512" fill="none"><defs><clipPath id="clip-rounded"><rect x="0" y="0" width="512" height="512" rx="128" ry="128" /></clipPath></defs><g clip-path="url(#clip-rounded)"><path fill="#eeeeee" d="M0 0h512v512H0z" /><path fill="#d80027" d="M0 186h512v96H0zm0 153h512v96H0zM93 29l14.4 44.2h46.5l-37.7 27.4 14.4 44.2L93 117.4l-37.6 27.4 14.4-44.2L32 73.2h46.5zm163 0 14.4 44.2h46.5l-37.7 27.4 14.4 44.2-37.6-27.4-37.6 27.4 14.4-44.2L195 73.2h46.5zm163 0 14.4 44.2h46.5l-37.7 27.4 14.4 44.2-37.6-27.4-37.6 27.4 14.4-44.2L358 73.2h46.5z" /></g></svg>