<?xml version='1.0' encoding='utf-8'?>
<svg xmlns="http://www.w3.org/2000/svg" width="512" height="512" fill="none"><defs><clipPath id="clip-rounded"><rect x="0" y="0" width="512" height="512" rx="128" ry="128" /></clipPath></defs><g clip-path="url(#clip-rounded)"><path fill="#d80027" d="M0 167h512v178.1H0z" /><path fill="#338af3" d="M0 0h512v178.1H0z" /><path fill="#6da544" d="M0 333.9h512V512H0z" /><path fill="#eeeeee" d="M0 200.3h512v111.3H0zM117 89a50 50 0 0 1 39.3-48.9 50.2 50.2 0 1 0 0 97.9c-22.5-5-39.3-25-39.3-49m69 22.8 3.3 10.4h11l-8.9 6.5 3.4 10.4-8.9-6.4-8.8 6.4 3.4-10.4-9-6.5h11zm35 0 3.4 10.4h11l-9 6.5 3.4 10.4-8.8-6.4-9 6.4 3.5-10.4-8.9-6.5h11zm35 0 3.4 10.4h11l-9 6.5 3.5 10.4-9-6.4-8.8 6.4 3.4-10.4-8.9-6.5h11zm35 0 3.4 10.4h11l-9 6.5 3.5 10.4-8.9-6.4-8.9 6.4 3.4-10.4-8.9-6.5h11zm35 0 3.4 10.4h11l-8.9 6.5 3.4 10.4-8.9-6.4-8.9 6.4 3.4-10.4-8.8-6.5h11zM221 75.4l3.4 10.4h11l-9 6.5 3.4 10.4-8.8-6.4-9 6.4 3.5-10.4-8.9-6.5h11zm35 0 3.4 10.4h11l-9 6.5 3.5 10.4-9-6.4-8.8 6.4 3.4-10.4-8.9-6.5h11zm35 0 3.4 10.4h11l-9 6.5 3.5 10.4-8.9-6.4-8.9 6.4 3.4-10.4-8.9-6.5h11zm35 0 3.4 10.4h11l-8.9 6.5 3.4 10.4-8.9-6.4-8.9 6.4 3.4-10.4-8.8-6.5h11zM256 39l3.4 10.4h11l-9 6.4 3.5 10.5-9-6.5-8.8 6.5 3.4-10.5-8.9-6.4h11zm35 0 3.4 10.4h11l-9 6.4 3.5 10.5-8.9-6.5-8.9 6.5 3.4-10.5-8.9-6.4h11zm35 0 3.4 10.4h11l-8.9 6.4 3.4 10.5-8.9-6.5-8.9 6.5 3.4-10.5-8.8-6.4h11z" /></g></svg>